HIERARCHY
ROOT reference
{
  OFFSET 0 0 0
  CHANNELS 6 Xposition Yposition Zposition Zrotation Xrotation Yrotation
  JOINT Hips
  {
    OFFSET 26.2902 92.0376 107.14
    CHANNELS 6 Xposition Yposition Zposition Zrotation Xrotation Yrotation
    JOINT Spine
    {
      OFFSET 0 8.25043 0
      CHANNELS 6 Xposition Yposition Zposition Zrotation Xrotation Yrotation
      JOINT Spine1
      {
        OFFSET 0 26.9735 0
        CHANNELS 6 Xposition Yposition Zposition Zrotation Xrotation Yrotation
        JOINT Neck
        {
          OFFSET 0 26.8627 2.44206
          CHANNELS 6 Xposition Yposition Zposition Zrotation Xrotation Yrotation
          JOINT Head
          {
            OFFSET 0 14.0861 -2.0123
            CHANNELS 6 Xposition Yposition Zposition Zrotation Xrotation Yrotation
            End Site
            {
              OFFSET 0 25.1537 0
            }
          }
        }
        JOINT LeftShoulder
        {
          OFFSET 4.03461 23.8974 -0.31355
          CHANNELS 6 Xposition Yposition Zposition Zrotation Xrotation Yrotation
          JOINT LeftArm
          {
            OFFSET 14.6104 0 0
            CHANNELS 6 Xposition Yposition Zposition Zrotation Xrotation Yrotation
            JOINT LeftForeArm
            {
              OFFSET 28.8903 0 0
              CHANNELS 6 Xposition Yposition Zposition Zrotation Xrotation Yrotation
              JOINT LeftHand
              {
                OFFSET 28.8168 0 0
                CHANNELS 6 Xposition Yposition Zposition Zrotation Xrotation Yrotation
                End Site
                {
                  OFFSET 15.0922 0 0
                }
              }
            }
          }
        }
        JOINT RightShoulder
        {
          OFFSET -4.01401 23.8974 -0.31355
          CHANNELS 6 Xposition Yposition Zposition Zrotation Xrotation Yrotation
          JOINT RightArm
          {
            OFFSET -14.6104 0 0
            CHANNELS 6 Xposition Yposition Zposition Zrotation Xrotation Yrotation
            JOINT RightForeArm
            {
              OFFSET -28.8903 0 0
              CHANNELS 6 Xposition Yposition Zposition Zrotation Xrotation Yrotation
              JOINT RightHand
              {
                OFFSET -28.8168 0 0
                CHANNELS 6 Xposition Yposition Zposition Zrotation Xrotation Yrotation
                End Site
                {
                  OFFSET -15.0922 0 0
                }
              }
            }
          }
        }
      }
    }
    JOINT LeftUpLeg
    {
      OFFSET 10.0615 0 0
      CHANNELS 6 Xposition Yposition Zposition Zrotation Xrotation Yrotation
      JOINT LeftLeg
      {
        OFFSET 0 -36.0896 0
        CHANNELS 6 Xposition Yposition Zposition Zrotation Xrotation Yrotation
        JOINT LeftFoot
        {
          OFFSET 0 -47.1136 0
          CHANNELS 6 Xposition Yposition Zposition Zrotation Xrotation Yrotation
          JOINT LeftToeBase
          {
            OFFSET 0 -6.53997 15.0922
            CHANNELS 6 Xposition Yposition Zposition Zrotation Xrotation Yrotation
            End Site
            {
              OFFSET 0 0 4.0246
            }
          }
        }
      }
    }
    JOINT RightUpLeg
    {
      OFFSET -10.0615 0 0
      CHANNELS 6 Xposition Yposition Zposition Zrotation Xrotation Yrotation
      JOINT RightLeg
      {
        OFFSET 0 -36.0896 0
        CHANNELS 6 Xposition Yposition Zposition Zrotation Xrotation Yrotation
        JOINT RightFoot
        {
          OFFSET 0 -47.1136 0
          CHANNELS 6 Xposition Yposition Zposition Zrotation Xrotation Yrotation
          JOINT RightToeBase
          {
            OFFSET 0 -6.53997 15.0922
            CHANNELS 6 Xposition Yposition Zposition Zrotation Xrotation Yrotation
            End Site
            {
              OFFSET 0 0 4.0246
            }
          }
        }
      }
    }
  }
}
MOTION
Frames:	11
Frame Time:	0.004
0 0 0 0 0 -0 -14.1378 82.5963 -212.545 0.703264 -0.299787 5.7744 0 8.25043 0 -0.890564 -3.45048 0.913761 0 26.9735 0 -0.423714 -6.90848 0.918976 -1.77636e-015 26.8627 2.44206 5.79654 28.8502 10.2506 0 14.0861 -2.0123 -8.89679 5.29546 10.5408 4.03461 23.8974 -0.31355 21.8307 -2.22467 -2.64778 14.6104 -2.84217e-014 0 -19.849 -7.11218 0.070639 28.8903 0 2.84217e-014 -2.13098 5.92247 3.44578 28.8168 0 0 24.9561 6.0398 0.243417 -4.01401 23.8974 -0.31355 -16.0365 -2.12564 1.83971 -14.6104 0 -2.84217e-014 14.696 4.35559 4.60271 -28.8903 0 -2.84217e-014 -8.3874 1.33454 -0.968461 -28.8168 0 0 -6.0293 1.92157 -12.4616 10.0615 0 0 5.61882 -1.23986 -5.58892 -8.88178e-016 -36.0896 0 -5.41609 12.8038 -20.0045 -1.42109e-014 -47.1136 0 8.82884 -14.9967 35.1538 -7.10543e-015 -6.53997 15.0922 -5.96354e-016 1.59028e-015 -3.18055e-015 -10.0615 -1.42109e-014 0 -5.00351 2.47291 -2.99675 -3.55271e-015 -36.0896 0 5.73338 8.7224 -3.94244 3.55271e-015 -47.1136 0 -5.86602 -18.513 -8.39702 0 -6.53997 15.0922 3.97569e-016 0 1.59028e-015 
0 0 0 0 0 -0 -14.1378 82.5963 -212.545 0.703449 -0.301618 5.7744 -1.77636e-015 8.25043 0 -0.890564 -3.45048 0.913761 -1.77636e-015 26.9735 0 -0.423858 -6.89958 0.918958 0 26.8627 2.44206 5.79247 28.8292 10.2485 -1.42109e-014 14.0861 -2.0123 -8.87377 5.32712 10.5413 4.03461 23.8974 -0.31355 21.8296 -2.22466 -2.65695 14.6104 0 0 -19.8684 -7.10742 0.062969 28.8903 0 0 -2.10856 5.92619 3.466 28.8168 0 0 24.5908 6.02136 0.146338 -4.01401 23.8974 -0.31355 -16.0365 -2.12564 1.83971 -14.6104 0 0 14.6865 4.30266 4.60239 -28.8903 0 0 -8.37395 1.34922 -0.968467 -28.8168 2.84217e-014 -2.84217e-014 -6.02655 1.93574 -12.4507 10.0615 1.42109e-014 0 5.6194 -1.23915 -5.56575 8.88178e-016 -36.0896 0 -5.41167 12.8023 -20.0245 0 -47.1136 0 8.58817 -15.2512 35.1612 0 -6.53997 15.0922 -1.98785e-016 0 -0 -10.0615 0 0 -4.95034 2.50324 -3.27228 -3.55271e-015 -36.0896 0 5.59914 8.6809 -3.90131 0 -47.1136 0 -5.74746 -18.5243 -8.13983 0 -6.53997 15.0922 -1.98785e-016 0 -1.59028e-015 
0 0 0 0 0 -0 -14.1378 82.5963 -212.545 0.704679 -0.313782 5.7744 -1.77636e-015 8.25043 0 -0.890564 -3.45048 0.913761 -3.55271e-015 26.9735 0 -0.42399 -6.89139 0.918943 3.55271e-015 26.8627 2.44206 5.77562 28.8407 10.2497 0 14.0861 -2.0123 -8.869 5.30313 10.5409 4.03461 23.8974 -0.31355 21.81 -2.22466 -2.65349 14.6104 -2.84217e-014 -2.84217e-014 -19.8615 -7.09156 0.060686 28.8903 -2.84217e-014 0 -2.09704 5.93302 3.45909 28.8168 0 0 24.5801 6.02801 0.147744 -4.01401 23.8974 -0.31355 -16.0365 -2.12564 1.83971 -14.6104 -2.84217e-014 0 14.6899 4.31803 4.60248 -28.8903 0 2.84217e-014 -8.38424 1.33497 -0.968461 -28.8168 -5.68434e-014 0 -6.02941 1.92228 -12.4538 10.0615 2.84217e-014 0 5.62102 -1.22624 -5.54861 -8.88178e-016 -36.0896 0 -5.41247 12.8039 -20.019 1.42109e-014 -47.1136 -2.84217e-014 8.80205 -15.0106 35.1409 0 -6.53997 15.0922 -7.95139e-016 0 1.59028e-015 -10.0615 1.42109e-014 0 -4.94758 2.52048 -3.25309 0 -36.0896 -2.84217e-014 5.59434 8.6683 -3.91204 0 -47.1136 -2.84217e-014 -5.73167 -18.5241 -8.14465 0 -6.53997 15.0922 -3.97569e-016 0 1.59028e-015 
0 0 0 0 0 -0 -14.1378 82.5963 -212.545 0.703991 -0.306977 5.7744 0 8.25043 0 -0.890004 -3.46162 0.914456 1.77636e-015 26.9735 2.84217e-014 -0.42407 -6.88644 0.918933 5.32907e-015 26.8627 2.44206 5.78823 28.8416 10.2497 0 14.0861 -2.0123 -8.89926 5.29622 10.5408 4.03461 23.8974 -0.31355 21.8098 -2.22075 -2.65488 14.6104 0 2.84217e-014 -19.8643 -7.10936 0.04927 28.8903 0 2.84217e-014 -2.10539 5.94081 3.46504 28.8168 0 0 24.577 6.0362 0.147991 -4.01401 23.8974 -0.31355 -16.0398 -2.12564 1.83971 -14.6104 0 0 14.6897 4.31137 4.60244 -28.8903 -2.84217e-014 2.84217e-014 -8.39024 1.32554 -0.968364 -28.8168 2.84217e-014 0 -6.02877 1.91218 -12.4433 10.0615 0 -2.84217e-014 5.62028 -1.23626 -5.53825 0 -36.0896 -2.84217e-014 -5.40453 12.811 -20.0407 0 -47.1136 0 8.81754 -15.0082 35.1533 7.10543e-015 -6.53997 15.0922 7.95139e-016 0 -0 -10.0615 0 0 -4.94122 2.50809 -3.25565 3.55271e-015 -36.0896 0 5.59262 8.67911 -3.89443 -7.10543e-015 -47.1136 0 -5.73341 -18.5235 -8.15642 0 -6.53997 15.0922 3.97569e-016 0 -0 
0 0 0 0 0 -0 -14.1378 82.5963 -212.545 0.705292 -0.31984 5.77441 1.77636e-015 8.25043 0 -0.880867 -3.44603 0.915129 0 26.9735 0 -0.434907 -6.88974 0.918849 0 26.8627 2.44206 5.77963 28.8404 10.2608 0 14.0861 -2.0123 -8.87497 5.30614 10.5537 4.03461 23.8974 -0.31355 21.805 -2.21828 -2.65611 14.6104 0 0 -19.8676 -7.08992 0.050019 28.8903 -5.68434e-014 -2.84217e-014 -2.1034 5.92959 3.45613 28.8168 2.84217e-014 2.84217e-014 24.608 6.02203 0.136152 -4.01401 23.8974 -0.31355 -16.0221 -2.12571 1.83972 -14.6104 -2.84217e-014 0 14.6884 4.31127 4.60211 -28.8903 0 -2.84217e-014 -8.34944 1.33693 -1.00701 -28.8168 0 0 -6.53082 1.97234 -12.3814 10.0615 0 -2.84217e-014 5.62041 -1.23269 -5.5479 -1.77636e-015 -36.0896 0 -5.41328 12.8074 -20.0107 0 -47.1136 2.84217e-014 8.81413 -15.0061 35.129 0 -6.53997 15.0922 7.95139e-016 -7.95139e-016 1.59028e-015 -10.0615 1.42109e-014 0 -4.93693 2.51914 -3.26188 0 -36.0896 -2.84217e-014 5.59578 8.68258 -3.91004 0 -47.1136 0 -5.75781 -18.524 -8.1466 0 -6.53997 15.0922 5.96354e-016 1.59028e-015 -1.59028e-015 
0 0 0 0 0 -0 -14.139 82.5963 -212.545 0.705092 -0.317862 5.77441 -1.77636e-015 8.25043 0 -0.880609 -3.45332 0.915819 0 26.9735 0 -0.435147 -6.88197 0.918706 0 26.8627 2.44206 5.76237 28.8399 10.2616 1.42109e-014 14.0861 -2.0123 -8.85929 5.30281 10.5532 4.03461 23.8974 -0.31355 21.8025 -2.22379 -2.65175 14.6104 -2.84217e-014 0 -19.8718 -7.08091 0.050464 28.8903 2.84217e-014 0 -2.09884 5.92252 3.44675 28.8168 0 -2.84217e-014 24.6347 6.01525 0.137817 -4.01401 23.8974 -0.31355 -16.0316 -2.13867 1.83973 -14.6104 0 0 14.6888 4.28675 4.60162 -28.8903 0 5.68434e-014 -8.34857 1.33966 -1.00271 -28.8168 -2.84217e-014 0 -6.55644 1.97734 -12.3674 10.0615 -1.42109e-014 -2.84217e-014 5.62038 -1.22675 -5.53924 -8.88178e-016 -36.0896 -2.84217e-014 -5.4076 12.8143 -20.0624 0 -47.1136 0 8.81933 -15.0034 35.1748 0 -6.53997 15.0922 5.96354e-016 7.95139e-016 -3.18055e-015 -10.0615 0 0 -4.99351 2.48403 -3.00629 0 -36.0896 2.84217e-014 5.72783 8.7433 -3.94622 0 -47.1136 0 -5.85309 -18.5134 -8.38858 0 -6.53997 15.0922 1.98785e-015 1.59028e-015 1.59028e-015 
0 0 0 0 0 -0 -14.1396 82.5963 -212.545 0.705967 -0.326517 5.77441 1.77636e-015 8.25043 0 -0.88181 -3.4464 0.916479 -1.77636e-015 26.9735 -2.84217e-014 -0.432198 -6.87828 0.918553 0 26.8627 2.44206 5.75742 28.8395 10.2615 0 14.0861 -2.0123 -8.85025 5.30358 10.5528 4.03461 23.8974 -0.31355 21.8286 -2.09054 -2.72924 14.6104 0 2.84217e-014 -19.9041 -7.19642 0.120413 28.8903 0 0 -2.08275 5.90158 3.39349 28.8168 0 0 24.6373 5.99375 0.141883 -4.01401 23.8974 -0.31355 -16.0285 -2.14769 1.83974 -14.6104 0 0 14.6887 4.26928 4.60089 -28.8903 2.84217e-014 0 -8.33989 1.34467 -1.00054 -28.8168 0 -2.84217e-014 -6.54761 1.98057 -12.3536 10.0615 1.42109e-014 -2.84217e-014 5.62014 -1.22295 -5.52761 0 -36.0896 2.84217e-014 -5.4078 12.8181 -20.0458 -1.42109e-014 -47.1136 0 8.60078 -15.2463 35.1481 0 -6.53997 15.0922 -3.97569e-016 -7.95139e-016 1.59028e-015 -10.0615 0 2.84217e-014 -4.94122 2.5279 -3.26652 0 -36.0896 0 5.59864 8.68305 -3.8944 0 -47.1136 -2.84217e-014 -5.75853 -18.5229 -8.17091 -7.10543e-015 -6.53997 15.0922 -0 0 1.59028e-015 
0 0 0 0 0 -0 -14.1401 82.5963 -212.545 0.704926 -0.316228 5.77441 -1.77636e-015 8.25043 0 -0.876168 -3.46319 0.917154 -3.55271e-015 26.9735 2.84217e-014 -0.434936 -6.87207 0.918395 1.77636e-015 26.8627 2.44206 5.77007 28.839 10.2611 1.42109e-014 14.0861 -2.0123 -8.86966 5.28349 10.5519 4.03461 23.8974 -0.31355 21.8182 -2.11075 -2.74037 14.6104 2.84217e-014 0 -19.8982 -7.19743 0.145068 28.8903 -2.84217e-014 0 -2.07935 5.89984 3.36809 28.8168 0 0 24.655 5.98997 0.134936 -4.01401 23.8974 -0.31355 -16.0234 -2.14902 1.83974 -14.6104 0 0 14.687 4.27634 4.59967 -28.8903 -5.68434e-014 -2.84217e-014 -8.34119 1.3258 -0.998628 -28.8168 -2.84217e-014 0 -6.59638 1.96806 -12.3701 10.0615 -1.42109e-014 -2.84217e-014 5.6184 -1.23132 -5.52849 0 -36.0896 0 -5.40004 12.8152 -20.0468 -1.42109e-014 -47.1136 2.84217e-014 8.58626 -15.2474 35.1475 0 -6.53997 15.0922 -3.97569e-016 0 -0 -10.0615 -2.84217e-014 0 -4.93365 2.51554 -3.25559 0 -36.0896 2.84217e-014 5.59253 8.6852 -3.90712 7.10543e-015 -47.1136 0 -5.76684 -18.5233 -8.16191 -1.42109e-014 -6.53997 15.0922 3.97569e-016 1.59028e-015 1.59028e-015 
0 0 0 0 0 -0 -14.1407 82.5963 -212.545 0.70689 -0.335641 5.77442 -1.77636e-015 8.25043 0 -0.871771 -3.44397 0.917799 1.77636e-015 26.9735 -2.84217e-014 -0.445726 -6.8705 0.918264 0 26.8627 2.44206 5.77497 28.8382 10.2607 0 14.0861 -2.0123 -8.87437 5.28027 10.5514 4.03461 23.8974 -0.31355 21.8192 -2.08565 -2.73124 14.6104 0 2.84217e-014 -19.8937 -7.22133 0.120526 28.8903 5.68434e-014 -2.84217e-014 -2.24229 6.1837 3.42132 28.8168 -2.84217e-014 0 25.2712 6.25082 0.002448 -4.01401 23.8974 -0.31355 -16.0198 -2.13797 1.83973 -14.6104 0 0 14.688 4.26091 4.59788 -28.8903 -2.84217e-014 0 -8.34295 1.32073 -0.996942 -28.8168 2.84217e-014 2.84217e-014 -6.58872 1.9615 -12.3553 10.0615 0 0 5.6195 -1.21005 -5.53148 -8.88178e-016 -36.0896 2.84217e-014 -5.40366 12.8164 -20.001 1.42109e-014 -47.1136 0 8.80134 -15.0138 35.1021 0 -6.53997 15.0922 3.97569e-016 2.38542e-015 -3.18055e-015 -10.0615 -1.42109e-014 0 -4.93463 2.53622 -3.2712 -3.55271e-015 -36.0896 -5.68434e-014 5.59164 8.68517 -3.90226 0 -47.1136 0 -5.77874 -18.5224 -8.15658 0 -6.53997 15.0922 1.98785e-016 -1.59028e-015 -0 
0 0 0 0 0 -0 -14.1412 82.5963 -212.545 0.706703 -0.333793 5.77442 -3.55271e-015 8.25043 0 -0.867413 -3.45001 0.918484 0 26.9735 0 -0.441736 -6.87028 0.918173 3.55271e-015 26.8627 2.44206 5.77434 28.837 10.2609 0 14.0861 -2.0123 -8.87095 5.2706 10.5514 4.03461 23.8974 -0.31355 21.8195 -2.08885 -2.71053 14.6104 0 -2.84217e-014 -19.9117 -7.21039 0.107025 28.8903 2.84217e-014 0 -2.23591 6.18356 3.41119 28.8168 2.84217e-014 2.84217e-014 25.3138 6.24732 -0.010855 -4.01401 23.8974 -0.31355 -16.0217 -2.15728 1.83975 -14.6104 0 2.84217e-014 14.6902 4.23814 4.5961 -28.8903 0 -2.84217e-014 -8.34463 1.34199 -0.995449 -28.8168 -2.84217e-014 0 -6.60654 1.98495 -12.3535 10.0615 0 -2.84217e-014 5.61782 -1.21673 -5.53926 0 -36.0896 2.84217e-014 -5.40882 12.8214 -19.9986 1.42109e-014 -47.1136 2.84217e-014 8.81753 -15.0117 35.1143 7.10543e-015 -6.53997 15.0922 -3.97569e-016 7.95139e-016 -0 -10.0615 0 0 -4.93356 2.53731 -3.27494 3.55271e-015 -36.0896 0 5.58972 8.6852 -3.88843 0 -47.1136 0 -5.76026 -18.5301 -8.16203 0 -6.53997 15.0922 7.95139e-016 0 -0 
0 0 0 0 0 -0 -14.1417 82.5963 -212.545 0.706706 -0.33404 5.77078 3.55271e-015 8.25043 -2.84217e-014 -0.863639 -3.44915 0.919187 1.77636e-015 26.9735 0 -0.454706 -6.8687 0.918135 3.55271e-015 26.8627 2.44206 5.7734 28.8315 10.2616 0 14.0861 -2.0123 -8.86338 5.27596 10.5528 4.03461 23.8974 -0.31355 21.7945 -2.19547 -2.62948 14.6104 0 -2.84217e-014 -19.8792 -7.13668 0.014016 28.8903 0 2.84217e-014 -2.25864 6.18118 3.4681 28.8168 0 0 25.3183 6.24087 -0.03711 -4.01401 23.8974 -0.31355 -16.01 -2.15371 1.83659 -14.6104 2.84217e-014 -2.84217e-014 14.6902 4.23727 4.59501 -28.8903 0 0 -8.34584 1.34812 -0.99559 -28.8168 0 -2.84217e-014 -6.59852 1.98975 -12.3451 10.0615 -1.42109e-014 -2.84217e-014 5.61616 -1.22506 -5.54181 0 -36.0896 0 -5.4086 12.8304 -20.031 1.42109e-014 -47.1136 2.84217e-014 8.81155 -15.0122 35.1383 7.10543e-015 -6.53997 15.0922 3.97569e-016 -1.59028e-015 -0 -10.0615 -1.42109e-014 -2.84217e-014 -4.93311 2.53013 -3.27194 0 -36.0896 0 5.59079 8.68499 -3.8927 0 -47.1136 2.84217e-014 -5.76066 -18.5317 -8.15859 0 -6.53997 15.0922 3.97569e-016 -1.59028e-015 -0 
